<svg width="35" height="42" viewBox="0 0 35 42" fill="none" xmlns="http://www.w3.org/2000/svg">
<path d="M28.5439 22.6537C28.4962 17.4861 32.8836 14.9721 33.0842 14.8551C30.5994 11.3229 26.7482 10.8403 25.3948 10.8018C22.1602 10.4699 19.0226 12.6889 17.3748 12.6889C15.6942 12.6889 13.1568 10.8339 10.4221 10.8884C6.903 10.9413 3.61082 12.9278 1.80522 16.0127C-1.92109 22.3025 0.858024 31.5457 4.42811 36.6299C6.21398 39.1199 8.30078 41.9001 11.0322 41.8023C13.7044 41.6948 14.7026 40.1412 17.9274 40.1412C21.1225 40.1412 22.0598 41.8023 24.8455 41.7397C27.7134 41.6948 29.519 39.2385 31.2424 36.7261C33.3062 33.8722 34.135 31.0615 34.1679 30.9172C34.1005 30.8948 28.5982 28.8473 28.5439 22.6537Z" fill="white"/>
<path d="M23.2817 7.45727C24.7189 5.70483 25.7023 3.32067 25.4293 0.901245C23.3491 0.991032 20.7476 2.30416 19.2495 4.01813C17.9241 5.52846 16.7401 8.00401 17.0459 10.3321C19.3827 10.502 21.7819 9.18246 23.2817 7.45727Z" fill="white"/>
</svg>
