<svg width="132" height="29" viewBox="0 0 132 29" fill="none" xmlns="http://www.w3.org/2000/svg">
<path d="M19.2161 22.4447H15.4815L13.4358 16.1773H6.32525L4.37659 22.4447H0.740723L7.78552 1.10754H12.1367L19.2161 22.4447ZM12.8192 13.5478L10.9692 7.97623C10.7735 7.40704 10.4068 6.06666 9.86574 3.95667H9.79996C9.58454 4.86415 9.23756 6.20454 8.76067 7.97623L6.94356 13.5478H12.8192Z" fill="white"/>
<path d="M37.333 14.5627C37.333 17.1794 36.6078 19.2477 35.1574 20.766C33.8583 22.1177 32.2451 22.7927 30.3195 22.7927C28.2409 22.7927 26.7477 22.0647 25.8384 20.6089H25.7726V28.7138H22.2666V12.1241C22.2666 10.4791 22.2222 8.79074 22.1367 7.05914H25.2201L25.4157 9.49781H25.4815C26.6507 7.66039 28.4251 6.74329 30.8062 6.74329C32.6677 6.74329 34.2217 7.45997 35.4649 8.89496C36.7114 10.3315 37.333 12.2203 37.333 14.5627ZM33.7613 14.6878C33.7613 13.1903 33.416 11.9557 32.722 10.9841C31.9639 9.9708 30.946 9.46414 29.6699 9.46414C28.8049 9.46414 28.0189 9.74633 27.3167 10.3027C26.6129 10.8639 26.1524 11.5966 25.937 12.5041C25.8285 12.9273 25.7742 13.2737 25.7742 13.5462V16.1116C25.7742 17.2307 26.1261 18.1751 26.83 18.9463C27.5338 19.7175 28.4481 20.1023 29.5729 20.1023C30.8934 20.1023 31.9212 19.6052 32.6562 18.6144C33.3929 17.6219 33.7613 16.3136 33.7613 14.6878Z" fill="white"/>
<path d="M55.4827 14.5627C55.4827 17.1794 54.7576 19.2477 53.3055 20.766C52.008 22.1177 50.3948 22.7927 48.4692 22.7927C46.3906 22.7927 44.8975 22.0647 43.9897 20.6089H43.924V28.7138H40.418V12.1241C40.418 10.4791 40.3736 8.79074 40.2881 7.05914H43.3714L43.5671 9.49781H43.6329C44.8004 7.66039 46.5748 6.74329 48.9576 6.74329C50.8175 6.74329 52.3715 7.45997 53.618 8.89496C54.8595 10.3315 55.4827 12.2203 55.4827 14.5627ZM51.911 14.6878C51.911 13.1903 51.564 11.9557 50.8701 10.9841C50.112 9.9708 49.0974 9.46414 47.8196 9.46414C46.953 9.46414 46.1686 9.74633 45.4648 10.3027C44.761 10.8639 44.3022 11.5966 44.0867 12.5041C43.9799 12.9273 43.924 13.2737 43.924 13.5462V16.1116C43.924 17.2307 44.2759 18.1751 44.9764 18.9463C45.6802 19.7159 46.5945 20.1023 47.7226 20.1023C49.0431 20.1023 50.0709 19.6052 50.806 18.6144C51.5427 17.6219 51.911 16.3136 51.911 14.6878Z" fill="white"/>
<path d="M75.7753 16.4611C75.7753 18.2761 75.129 19.7527 73.8315 20.8927C72.4058 22.1385 70.421 22.7606 67.8704 22.7606C65.5156 22.7606 63.6278 22.3181 62.1987 21.4314L63.0111 18.5823C64.5503 19.4898 66.2391 19.9451 68.0793 19.9451C69.3998 19.9451 70.4275 19.6533 71.1659 19.0729C71.901 18.4925 72.2677 17.7133 72.2677 16.7417C72.2677 15.8759 71.9651 15.1464 71.3583 14.5547C70.7548 13.9631 69.7467 13.4132 68.3391 12.9049C64.5075 11.5116 62.5934 9.47056 62.5934 6.78658C62.5934 5.03253 63.2643 3.59434 64.6078 2.47522C65.9464 1.35449 67.7323 0.794922 69.9654 0.794922C71.9569 0.794922 73.6112 1.13323 74.9317 1.80823L74.0552 4.59482C72.8218 3.94066 71.4274 3.61358 69.8668 3.61358C68.6334 3.61358 67.6698 3.9102 66.9791 4.50023C66.3954 5.02772 66.1026 5.67066 66.1026 6.43224C66.1026 7.2756 66.4365 7.97305 67.1074 8.52139C67.6912 9.02804 68.7518 9.57638 70.291 10.168C72.1739 10.9071 73.5569 11.7713 74.4466 12.7622C75.3329 13.7499 75.7753 14.986 75.7753 16.4611Z" fill="white"/>
<path d="M87.367 9.62449H83.5025V17.0944C83.5025 18.9944 84.1833 19.9435 85.5482 19.9435C86.1747 19.9435 86.6944 19.8906 87.1055 19.7848L87.2025 22.3806C86.5119 22.6323 85.6025 22.759 84.476 22.759C83.0914 22.759 82.0094 22.3469 81.2283 21.5244C80.4504 20.7003 80.059 19.3182 80.059 17.3766V9.62128H77.7568V7.05595H80.059V4.23889L83.5025 3.22559V7.05595H87.367V9.62449Z" fill="white"/>
<path d="M104.803 14.6253C104.803 16.9902 104.109 18.9319 102.724 20.4502C101.272 22.0135 99.3449 22.7927 96.9424 22.7927C94.627 22.7927 92.7836 22.0439 91.4088 20.5464C90.0341 19.0489 89.3467 17.1586 89.3467 14.8802C89.3467 12.4961 90.0538 10.5432 91.4729 9.02488C92.8888 7.50492 94.7997 6.74493 97.2022 6.74493C99.5176 6.74493 101.381 7.49369 102.787 8.99281C104.132 10.447 104.803 12.3245 104.803 14.6253ZM101.165 14.7359C101.165 13.317 100.854 12.1001 100.225 11.0852C99.4896 9.85701 98.4388 9.24453 97.0772 9.24453C95.6679 9.24453 94.5974 9.85861 93.8623 11.0852C93.2325 12.1017 92.9217 13.3378 92.9217 14.8001C92.9217 16.219 93.2325 17.436 93.8623 18.4493C94.6204 19.6774 95.6794 20.2899 97.046 20.2899C98.3845 20.2899 99.4353 19.6646 100.193 18.4172C100.84 17.3831 101.165 16.1533 101.165 14.7359Z" fill="white"/>
<path d="M116.199 10.0654C115.852 10.0029 115.482 9.9708 115.094 9.9708C113.861 9.9708 112.907 10.4245 112.236 11.3336C111.652 12.1353 111.359 13.1486 111.359 14.3719V22.4447H107.855L107.888 11.9044C107.888 10.1311 107.844 8.51657 107.756 7.06075H110.81L110.938 10.0045H111.035C111.405 8.99276 111.989 8.17827 112.788 7.5674C113.569 7.01746 114.413 6.74329 115.322 6.74329C115.646 6.74329 115.939 6.76573 116.199 6.80582V10.0654Z" fill="white"/>
<path d="M131.879 14.024C131.879 14.6365 131.838 15.1528 131.751 15.5744H121.233C121.274 17.0944 121.782 18.2568 122.759 19.0585C123.645 19.7752 124.791 20.1343 126.199 20.1343C127.756 20.1343 129.177 19.8922 130.455 19.4064L131.004 21.7793C129.511 22.4143 127.748 22.7301 125.714 22.7301C123.267 22.7301 121.346 22.0279 119.948 20.6249C118.554 19.222 117.855 17.3381 117.855 14.9748C117.855 12.6548 118.505 10.7227 119.805 9.18195C121.167 7.53693 123.007 6.71442 125.322 6.71442C127.597 6.71442 129.318 7.53693 130.488 9.18195C131.413 10.4887 131.879 12.1048 131.879 14.024ZM128.536 13.1374C128.559 12.1241 128.33 11.2486 127.855 10.5095C127.248 9.55873 126.316 9.08414 125.061 9.08414C123.915 9.08414 122.982 9.54751 122.27 10.4774C121.687 11.2166 121.34 12.1032 121.233 13.1358H128.536V13.1374Z" fill="white"/>
</svg>
