<svg width="129" height="12" viewBox="0 0 129 12" fill="none" xmlns="http://www.w3.org/2000/svg">
<path d="M9.66001 5.98113C9.66001 7.86826 9.07952 9.28881 7.92018 10.2428C6.84636 11.123 5.32031 11.5639 3.34369 11.5639C2.3636 11.5639 1.52493 11.5223 0.822754 11.4389V1.12784C1.73871 0.983543 2.72538 0.90979 3.79098 0.90979C5.67387 0.90979 7.09303 1.30902 8.05009 2.10748C9.12227 3.01016 9.66001 4.30084 9.66001 5.98113ZM7.84289 6.02763C7.84289 4.80429 7.51072 3.86634 6.84636 3.21218C6.18201 2.55962 5.21178 2.23254 3.93405 2.23254C3.39138 2.23254 2.92929 2.26781 2.54613 2.34157V10.1803C2.75827 10.2123 3.14636 10.2268 3.7104 10.2268C5.02925 10.2268 6.04716 9.86922 6.76414 9.15413C7.48112 8.43904 7.84289 7.39688 7.84289 6.02763Z" fill="white"/>
<path d="M19.2946 7.62936C19.2946 8.79177 18.9542 9.74415 18.2734 10.4913C17.5597 11.2593 16.6141 11.6425 15.4334 11.6425C14.2954 11.6425 13.3894 11.2753 12.7135 10.5378C12.0393 9.80187 11.7021 8.87354 11.7021 7.75442C11.7021 6.58398 12.0491 5.62359 12.7464 4.87804C13.4436 4.13249 14.381 3.75891 15.5617 3.75891C16.6996 3.75891 17.6139 4.12607 18.3062 4.862C18.964 5.57709 19.2946 6.50061 19.2946 7.62936ZM17.507 7.68387C17.507 6.98642 17.3525 6.38838 17.045 5.88974C16.6832 5.28689 16.1685 4.98546 15.4992 4.98546C14.8069 4.98546 14.2806 5.28689 13.9189 5.88974C13.6097 6.38838 13.4568 6.99604 13.4568 7.71433C13.4568 8.41178 13.6113 9.00983 13.9189 9.50846C14.2921 10.1113 14.8118 10.4127 15.4827 10.4127C16.1405 10.4127 16.6569 10.1065 17.0285 9.49243C17.3475 8.98417 17.507 8.38132 17.507 7.68387Z" fill="white"/>
<path d="M32.2135 3.91278L29.7879 11.4709H28.2093L27.2045 8.18887C26.9496 7.36957 26.7424 6.55507 26.5813 5.74699H26.55C26.4004 6.57752 26.1932 7.39041 25.9268 8.18887L24.8595 11.4709H23.2628L20.9819 3.91278H22.753L23.6295 7.50585C23.8416 8.35562 24.0159 9.1653 24.1557 9.93169H24.187C24.3152 9.29998 24.5273 8.49511 24.8266 7.52188L25.9268 3.91438H27.3311L28.3852 7.44492C28.6401 8.30591 28.8473 9.13484 29.0068 9.9333H29.0545C29.1713 9.15568 29.3472 8.32676 29.5807 7.44492L30.5213 3.91438H32.2135V3.91278Z" fill="white"/>
<path d="M41.1479 11.4709H39.4245V7.14193C39.4245 5.80796 38.9048 5.14097 37.8623 5.14097C37.3508 5.14097 36.9381 5.32375 36.6174 5.69092C36.3 6.05808 36.1389 6.49098 36.1389 6.98641V11.4693H34.4155V6.07251C34.4155 5.40873 34.3941 4.68883 34.353 3.90961H35.8676L35.9481 5.09127H35.9958C36.1964 4.72411 36.4957 4.42108 36.8888 4.17897C37.3558 3.89679 37.8787 3.75409 38.451 3.75409C39.1745 3.75409 39.7764 3.98176 40.2549 4.43871C40.8502 4.99828 41.1479 5.83361 41.1479 6.94312V11.4709Z" fill="white"/>
<path d="M45.9004 11.4709H44.1787V0.444763H45.9004V11.4709Z" fill="white"/>
<path d="M56.0465 7.62936C56.0465 8.79177 55.7061 9.74415 55.0253 10.4913C54.3116 11.2593 53.3644 11.6425 52.1854 11.6425C51.0458 11.6425 50.1397 11.2753 49.4654 10.5378C48.7912 9.80187 48.4541 8.87354 48.4541 7.75442C48.4541 6.58398 48.8011 5.62359 49.4983 4.87804C50.1956 4.13249 51.1329 3.75891 52.312 3.75891C53.4516 3.75891 54.3642 4.12607 55.0582 4.862C55.716 5.57709 56.0465 6.50061 56.0465 7.62936ZM54.2573 7.68387C54.2573 6.98642 54.1028 6.38838 53.7953 5.88974C53.4351 5.28689 52.9188 4.98546 52.2511 4.98546C51.5572 4.98546 51.0309 5.28689 50.6708 5.88974C50.3617 6.38838 50.2087 6.99604 50.2087 7.71433C50.2087 8.41178 50.3633 9.00983 50.6708 9.50846C51.0441 10.1113 51.5638 10.4127 52.2347 10.4127C52.8925 10.4127 53.4072 10.1065 53.7788 9.49243C54.0995 8.98417 54.2573 8.38132 54.2573 7.68387Z" fill="white"/>
<path d="M64.3874 11.4709H62.84L62.7117 10.6003H62.664C62.1345 11.2946 61.3797 11.6425 60.3997 11.6425C59.6679 11.6425 59.0759 11.4132 58.6302 10.9579C58.2257 10.5442 58.0234 10.0295 58.0234 9.41868C58.0234 8.49516 58.4181 7.79129 59.2124 7.30388C60.005 6.81647 61.1199 6.57757 62.5555 6.58879V6.4477C62.5555 5.45203 62.0194 4.955 60.9456 4.955C60.1809 4.955 59.5067 5.14259 58.9246 5.51456L58.5743 4.41147C59.2946 3.97696 60.1842 3.75891 61.2334 3.75891C63.2593 3.75891 64.2756 4.80108 64.2756 6.88541V9.6688C64.2756 10.424 64.3134 11.0252 64.3874 11.4709ZM62.5983 8.87354V7.70792C60.6973 7.67585 59.7468 8.18411 59.7468 9.23109C59.7468 9.62551 59.8553 9.92052 60.0773 10.1177C60.2993 10.3149 60.5822 10.4127 60.9193 10.4127C61.2975 10.4127 61.6511 10.2957 61.9734 10.0632C62.2973 9.82913 62.4963 9.53251 62.5703 9.16856C62.5884 9.08679 62.5983 8.98738 62.5983 8.87354Z" fill="white"/>
<path d="M74.1798 11.4709H72.6504L72.5699 10.2572H72.5222C72.0338 11.1807 71.2017 11.6424 70.0325 11.6424C69.0984 11.6424 68.3206 11.2849 67.704 10.5698C67.0873 9.85473 66.7798 8.9264 66.7798 7.78643C66.7798 6.56308 67.1136 5.57222 67.7845 4.81545C68.4341 4.10998 69.23 3.75725 70.1772 3.75725C71.2181 3.75725 71.9466 4.09876 72.361 4.78338H72.3939V0.444763H74.1189V9.43465C74.1189 10.1706 74.1387 10.8488 74.1798 11.4709ZM72.3939 8.28346V7.02324C72.3939 6.80519 72.3775 6.62882 72.3462 6.49414C72.2492 6.0901 72.0403 5.75019 71.723 5.47602C71.4023 5.20185 71.0159 5.06397 70.5702 5.06397C69.9272 5.06397 69.424 5.31248 69.054 5.81112C68.6873 6.30976 68.5015 6.94628 68.5015 7.7239C68.5015 8.47105 68.6775 9.07711 69.031 9.54368C69.4043 10.0407 69.9075 10.2892 70.5373 10.2892C71.103 10.2892 71.5552 10.0824 71.8989 9.66714C72.2311 9.28394 72.3939 8.82218 72.3939 8.28346Z" fill="white"/>
<path d="M88.9191 7.62936C88.9191 8.79177 88.5787 9.74415 87.8979 10.4913C87.1842 11.2593 86.2403 11.6425 85.0579 11.6425C83.9216 11.6425 83.0155 11.2753 82.338 10.5378C81.6638 9.80187 81.3267 8.87354 81.3267 7.75442C81.3267 6.58398 81.6736 5.62359 82.3709 4.87804C83.0681 4.13249 84.0055 3.75891 85.1878 3.75891C86.3241 3.75891 87.2401 4.12607 87.9307 4.862C88.5885 5.57709 88.9191 6.50061 88.9191 7.62936ZM87.1332 7.68387C87.1332 6.98642 86.9786 6.38838 86.6711 5.88974C86.3077 5.28689 85.7946 4.98546 85.1237 4.98546C84.433 4.98546 83.9068 5.28689 83.5434 5.88974C83.2342 6.38838 83.0813 6.99604 83.0813 7.71433C83.0813 8.41178 83.2359 9.00983 83.5434 9.50846C83.9167 10.1113 84.4363 10.4127 85.1072 10.4127C85.765 10.4127 86.283 10.1065 86.6547 9.49243C86.972 8.98417 87.1332 8.38132 87.1332 7.68387Z" fill="white"/>
<path d="M98.1853 11.4709H96.4635V7.14193C96.4635 5.80796 95.9439 5.14097 94.8997 5.14097C94.3883 5.14097 93.9755 5.32375 93.6565 5.69092C93.3375 6.05808 93.178 6.49098 93.178 6.98641V11.4693H91.4529V6.07251C91.4529 5.40873 91.4332 4.68883 91.3921 3.90961H92.905L92.9856 5.09127H93.0332C93.2355 4.72411 93.5348 4.42108 93.9262 4.17897C94.3948 3.89679 94.9161 3.75409 95.49 3.75409C96.212 3.75409 96.8138 3.98176 97.2923 4.43871C97.8893 4.99828 98.1853 5.83361 98.1853 6.94312V11.4709Z" fill="white"/>
<path d="M109.784 5.17145H107.886V8.84308C107.886 9.77622 108.223 10.2428 108.891 10.2428C109.2 10.2428 109.456 10.2171 109.659 10.1642L109.703 11.4389C109.363 11.5639 108.915 11.6265 108.365 11.6265C107.684 11.6265 107.154 11.4244 106.771 11.0204C106.386 10.6164 106.196 9.93655 106.196 8.98257V5.17145H105.062V3.91283H106.196V2.52755L107.884 2.03052V3.91123H109.782V5.17145H109.784Z" fill="white"/>
<path d="M118.907 11.4709H117.182V7.17395C117.182 5.81914 116.663 5.14093 115.622 5.14093C114.822 5.14093 114.276 5.53374 113.977 6.31938C113.926 6.48452 113.897 6.68654 113.897 6.92383V11.4693H112.175V0.444763H113.897V4.99983H113.929C114.472 4.17091 115.25 3.75725 116.258 3.75725C116.972 3.75725 117.562 3.98492 118.031 4.44187C118.614 5.01106 118.907 5.85762 118.907 6.97674V11.4709Z" fill="white"/>
<path d="M128.318 7.33431C128.318 7.63573 128.295 7.88906 128.254 8.09589H123.086C123.109 8.84304 123.355 9.41223 123.834 9.80665C124.271 10.1594 124.835 10.3357 125.526 10.3357C126.291 10.3357 126.988 10.2171 127.616 9.9782L127.886 11.1454C127.151 11.4565 126.286 11.612 125.284 11.612C124.084 11.612 123.138 11.2673 122.454 10.5779C121.767 9.88842 121.426 8.9633 121.426 7.80248C121.426 6.66251 121.744 5.71334 122.383 4.95656C123.051 4.14849 123.954 3.74445 125.093 3.74445C126.208 3.74445 127.055 4.14849 127.627 4.95656C128.09 5.5979 128.318 6.39155 128.318 7.33431ZM126.674 6.8998C126.687 6.40117 126.573 5.97148 126.34 5.60912C126.041 5.14255 125.585 4.90847 124.968 4.90847C124.406 4.90847 123.947 5.13614 123.597 5.59309C123.311 5.95705 123.141 6.39155 123.086 6.8998H126.674Z" fill="white"/>
</svg>
