<svg width="65" height="12" viewBox="0 0 65 12" fill="none" xmlns="http://www.w3.org/2000/svg">
<path d="M10.9755 6.38998C10.9755 7.72598 10.5644 8.79598 9.75451 9.59398C8.82334 10.54 7.61057 11.016 6.1244 11.016C4.70401 11.016 3.49123 10.532 2.49634 9.57798C1.49939 8.60998 1.00195 7.42198 1.00195 5.99998C1.00195 4.57798 1.49939 3.38998 2.49634 2.42998C3.49123 1.46798 4.70401 0.983978 6.1244 0.983978C6.83151 0.983978 7.50573 1.12598 8.14911 1.38998C8.79045 1.65598 9.31256 2.01598 9.69078 2.45998L8.83156 3.30398C8.17173 2.54598 7.27345 2.17198 6.1244 2.17198C5.0884 2.17198 4.19012 2.52398 3.42751 3.23398C2.67312 3.94598 2.29489 4.86798 2.29489 5.99998C2.29489 7.13198 2.67312 8.06197 3.42751 8.77397C4.19012 9.47597 5.0884 9.83597 6.1244 9.83597C7.22412 9.83597 8.14912 9.47597 8.87884 8.76598C9.35984 8.29598 9.63323 7.64798 9.70518 6.81998H6.1244V5.66398H10.9015C10.9591 5.91398 10.9755 6.15598 10.9755 6.38998V6.38998Z" fill="black" stroke="black" stroke-width="0.16" stroke-miterlimit="10"/>
<path d="M18.5545 2.38198H14.0672V5.42198H18.1125V6.57797H14.0672V9.61797H18.5545V10.796H12.7969V1.20398H18.5545V2.38198Z" fill="black" stroke="black" stroke-width="0.16" stroke-miterlimit="10"/>
<path d="M23.9026 10.796H22.6323V2.38198H19.8799V1.20398H26.657V2.38198H23.9026V10.796V10.796Z" fill="black" stroke="black" stroke-width="0.16" stroke-miterlimit="10"/>
<path d="M31.5615 10.796V1.20398H32.8298V10.796H31.5615Z" fill="black" stroke="black" stroke-width="0.16" stroke-miterlimit="10"/>
<path d="M38.4524 10.796H37.1923V2.38198H34.4297V1.20398H41.2151V2.38198H38.4524V10.796Z" fill="black" stroke="black" stroke-width="0.16" stroke-miterlimit="10"/>
<path d="M54.0453 9.56198C53.073 10.532 51.8684 11.016 50.4316 11.016C48.9866 11.016 47.782 10.532 46.8097 9.56198C45.8395 8.59398 45.3564 7.40598 45.3564 5.99998C45.3564 4.59398 45.8395 3.40598 46.8097 2.43798C47.782 1.46798 48.9866 0.983978 50.4316 0.983978C51.8602 0.983978 53.0648 1.46798 54.0371 2.44598C55.0155 3.42198 55.4986 4.60198 55.4986 5.99998C55.4986 7.40598 55.0155 8.59398 54.0453 9.56198ZM47.7491 8.75798C48.4809 9.47598 49.3709 9.83597 50.4316 9.83597C51.4841 9.83597 52.3823 9.47598 53.1059 8.75798C53.8356 8.03998 54.2056 7.11798 54.2056 5.99998C54.2056 4.88198 53.8356 3.95998 53.1059 3.24198C52.3823 2.52398 51.4841 2.16398 50.4316 2.16398C49.3709 2.16398 48.4809 2.52398 47.7491 3.24198C47.0194 3.95998 46.6494 4.88198 46.6494 5.99998C46.6494 7.11798 47.0194 8.03998 47.7491 8.75798V8.75798Z" fill="black" stroke="black" stroke-width="0.16" stroke-miterlimit="10"/>
<path d="M57.2812 10.796V1.20398H58.8229L63.6165 8.66398H63.672L63.6165 6.81997V1.20398H64.8848V10.796H63.561L58.5413 2.96798H58.4858L58.5413 4.81998V10.796H57.2812V10.796Z" fill="black" stroke="black" stroke-width="0.16" stroke-miterlimit="10"/>
</svg>
