<svg width="140" height="28" viewBox="0 0 140 28" fill="none" xmlns="http://www.w3.org/2000/svg">
<path d="M45.0435 7.80405C41.1811 7.80405 38.0258 10.6641 38.0258 14.6101C38.0258 18.5241 41.1811 21.414 45.0435 21.414C48.9141 21.414 52.0694 18.5241 52.0694 14.6101C52.0694 10.6641 48.9141 7.80405 45.0435 7.80405ZM45.0435 18.7341C42.9242 18.7341 41.101 17.0321 41.101 14.6101C41.101 12.1561 42.9242 10.4841 45.0435 10.4841C47.1628 10.4841 48.9943 12.1561 48.9943 14.6101C48.9943 17.0321 47.1628 18.7341 45.0435 18.7341V18.7341ZM29.7317 7.80405C25.8611 7.80405 22.714 10.6641 22.714 14.6101C22.714 18.5241 25.8611 21.414 29.7317 21.414C33.6002 21.414 36.7493 18.5241 36.7493 14.6101C36.7493 10.6641 33.6002 7.80405 29.7317 7.80405ZM29.7317 18.7341C27.6103 18.7341 25.7809 17.0321 25.7809 14.6101C25.7809 12.1561 27.6103 10.4841 29.7317 10.4841C31.851 10.4841 33.6742 12.1561 33.6742 14.6101C33.6742 17.0321 31.851 18.7341 29.7317 18.7341ZM11.5112 9.89005V12.7821H18.6091C18.4015 14.3981 17.8465 15.5861 16.9955 16.4141C15.9595 17.4141 14.3459 18.524 11.5112 18.524C7.14319 18.524 3.72274 15.0941 3.72274 10.8441C3.72274 6.59405 7.14319 3.16405 11.5112 3.16405C13.8731 3.16405 15.5915 4.06205 16.8598 5.22605L18.9544 3.18805C17.1805 1.54005 14.8207 0.274052 11.5112 0.274052C5.52136 0.274052 0.487305 5.01605 0.487305 10.8441C0.487305 16.6721 5.52136 21.414 11.5112 21.414C14.7487 21.414 17.1805 20.382 19.0921 18.446C21.0511 16.54 21.6616 13.86 21.6616 11.6961C21.6616 11.0241 21.604 10.4061 21.5012 9.89005H11.5112ZM86.0169 12.1321C85.4393 10.6101 83.6571 7.80405 80.027 7.80405C76.4298 7.80405 73.4348 10.5621 73.4348 14.6101C73.4348 18.4221 76.3989 21.414 80.3723 21.414C83.5852 21.414 85.4393 19.508 86.2019 18.398L83.8174 16.8521C83.0219 17.9841 81.9387 18.7341 80.3723 18.7341C78.8163 18.7341 77.7001 18.0401 76.9848 16.6721L86.3396 12.906L86.0169 12.1321V12.1321ZM76.4791 14.398C76.3989 11.774 78.5737 10.4301 80.1318 10.4301C81.3528 10.4301 82.3888 11.0241 82.7342 11.8741L76.4791 14.398V14.398ZM68.8756 21H71.9507V1.00005H68.8756V21ZM63.8395 9.32005H63.7367C63.0461 8.52405 61.7285 7.80405 60.0593 7.80405C56.5567 7.80405 53.3541 10.7961 53.3541 14.6321C53.3541 18.446 56.5567 21.414 60.0593 21.414C61.7285 21.414 63.0461 20.688 63.7367 19.868H63.8395V20.8441C63.8395 23.4461 62.4109 24.844 60.1066 24.844C58.2278 24.844 57.0623 23.524 56.5813 22.414L53.9071 23.5C54.6779 25.304 56.7191 27.524 60.1066 27.524C63.7121 27.524 66.7543 25.46 66.7543 20.438V8.21805H63.8395V9.32005V9.32005ZM60.3225 18.7341C58.2032 18.7341 56.4292 17.008 56.4292 14.6321C56.4292 12.2341 58.2032 10.4841 60.3225 10.4841C62.4109 10.4841 64.0574 12.2341 64.0574 14.6321C64.0574 17.008 62.4109 18.7341 60.3225 18.7341V18.7341ZM100.414 1.00005H93.0592V21H96.1261V13.4221H100.414C103.82 13.4221 107.16 11.0241 107.16 7.21005C107.16 3.39805 103.812 1.00005 100.414 1.00005V1.00005ZM100.494 10.6401H96.1261V3.78205H100.494C102.784 3.78205 104.091 5.63205 104.091 7.21005C104.091 8.75805 102.784 10.6401 100.494 10.6401ZM119.453 7.76605C117.237 7.76605 114.932 8.71805 113.985 10.8281L116.706 11.9381C117.292 10.8281 118.369 10.468 119.508 10.468C121.099 10.468 122.713 11.3981 122.737 13.0401V13.2501C122.182 12.9381 120.994 12.4761 119.533 12.4761C116.601 12.4761 113.615 14.0461 113.615 16.9761C113.615 19.6561 116.016 21.382 118.715 21.382C120.778 21.382 121.917 20.4761 122.632 19.4221H122.737V20.968H125.699V13.2961C125.699 9.75005 122.978 7.76605 119.453 7.76605ZM119.083 18.7261C118.079 18.7261 116.682 18.2421 116.682 17.0321C116.682 15.4841 118.425 14.89 119.934 14.89C121.284 14.89 121.917 15.1801 122.737 15.5621C122.497 17.4141 120.859 18.7261 119.083 18.7261V18.7261ZM136.491 8.20405L132.966 16.8741H132.861L129.216 8.20405H125.909L131.385 20.32L128.261 27.062H131.465L139.903 8.20405H136.491V8.20405ZM108.846 21H111.921V1.00005H108.846V21Z" fill="black"/>
</svg>
