<svg width="41" height="44" viewBox="0 0 41 44" fill="none" xmlns="http://www.w3.org/2000/svg">
<path d="M0.926672 2.06201C0.443617 2.55401 0.164062 3.32001 0.164062 4.31201V39.696C0.164062 40.688 0.443617 41.454 0.926672 41.946L1.0459 42.054L21.4247 22.234V21.766L1.0459 1.94601L0.926672 2.06201Z" fill="black"/>
<path d="M30.676 28.844L23.8906 22.234V21.766L30.6842 15.156L30.8363 15.242L38.8818 19.696C41.1778 20.96 41.1778 23.04 38.8818 24.312L30.8363 28.758L30.676 28.844V28.844Z" fill="black"/>
<path d="M29.6039 29.9888L22.6582 23.2308L2.16016 43.1768C2.92277 43.9568 4.16638 44.0508 5.5806 43.2708L29.6039 29.9888" fill="black"/>
<path d="M29.6039 14.0113L5.5806 0.729261C4.16638 -0.0427384 2.92277 0.0512589 2.16016 0.831259L22.6582 20.7693L29.6039 14.0113Z" fill="black"/>
</svg>
