<svg width="46" height="46" viewBox="0 0 46 46" fill="none" xmlns="http://www.w3.org/2000/svg">
<rect x="0.5" y="0.5" width="45" height="45" rx="22.5" fill="#fff"/>
<g clip-path="url(#clip0_265_136)">
<path d="M17.9399 16C17.9397 16.5305 17.7287 17.0391 17.3534 17.4139C16.9782 17.7888 16.4694 17.9993 15.9389 17.999C15.4085 17.9988 14.8999 17.7878 14.525 17.4125C14.1501 17.0373 13.9397 16.5285 13.9399 15.998C13.9402 15.4676 14.1512 14.959 14.5264 14.5841C14.9017 14.2092 15.4105 13.9988 15.9409 13.999C16.4714 13.9993 16.98 14.2103 17.3549 14.5855C17.7297 14.9608 17.9402 15.4696 17.9399 16ZM17.9999 19.48H13.9999V32H17.9999V19.48ZM24.3199 19.48H20.3399V32H24.2799V25.43C24.2799 21.77 29.0499 21.43 29.0499 25.43V32H32.9999V24.07C32.9999 17.9 25.9399 18.13 24.2799 21.16L24.3199 19.48Z" fill="black"/>
</g>
<defs>
<clipPath id="clip0_265_136">
<rect width="24" height="24" fill="#fff" transform="translate(11 11)"/>
</clipPath>
</defs>
</svg>
