<svg width="45" height="45" viewBox="0 0 45 45" fill="none" xmlns="http://www.w3.org/2000/svg">
<rect width="45" height="45" rx="22.5" fill="white"/>
<g clip-path="url(#clip0_227_165)">
<path fill-rule="evenodd" clip-rule="evenodd" d="M30.253 15.159C30.3395 15.0601 30.4056 14.9452 30.4477 14.8207C30.4897 14.6963 30.5069 14.5647 30.4981 14.4337C30.4893 14.3026 30.4548 14.1746 30.3965 14.0568C30.3383 13.9391 30.2574 13.834 30.1585 13.7475C30.0596 13.661 29.9447 13.5949 29.8202 13.5528C29.6958 13.5108 29.5642 13.4936 29.4332 13.5024C29.3021 13.5112 29.1741 13.5457 29.0563 13.604C28.9386 13.6622 28.8335 13.7431 28.747 13.842L23.637 19.682L19.3 13.9C19.2069 13.7758 19.0861 13.675 18.9472 13.6056C18.8084 13.5361 18.6552 13.5 18.5 13.5H14.5C14.3143 13.5 14.1322 13.5517 13.9743 13.6493C13.8163 13.747 13.6886 13.8867 13.6056 14.0528C13.5225 14.2189 13.4874 14.4048 13.504 14.5898C13.5207 14.7748 13.5886 14.9514 13.7 15.1L20.137 23.682L14.747 29.842C14.6605 29.9409 14.5944 30.0558 14.5523 30.1803C14.5103 30.3047 14.4931 30.4363 14.5019 30.5673C14.5107 30.6984 14.5452 30.8264 14.6035 30.9442C14.6617 31.0619 14.7426 31.167 14.8415 31.2535C14.9404 31.34 15.0553 31.4061 15.1798 31.4482C15.3042 31.4902 15.4358 31.5074 15.5668 31.4986C15.6979 31.4898 15.8259 31.4553 15.9437 31.397C16.0614 31.3388 16.1665 31.2579 16.253 31.159L21.363 25.318L25.7 31.1C25.7931 31.2242 25.9139 31.325 26.0528 31.3944C26.1916 31.4639 26.3448 31.5 26.5 31.5H30.5C30.6857 31.5 30.8678 31.4483 31.0257 31.3507C31.1837 31.253 31.3114 31.1133 31.3944 30.9472C31.4775 30.7811 31.5126 30.5952 31.496 30.4102C31.4793 30.2252 31.4114 30.0486 31.3 29.9L24.863 21.318L30.253 15.159ZM27 29.5L16.5 15.5H18L28.5 29.5H27Z" fill="black"/>
</g>
<defs>
<clipPath id="clip0_227_165">
<rect width="24" height="24" fill="white" transform="translate(10.5 10.5)"/>
</clipPath>
</defs>
</svg>
